<svg xmlns="http://www.w3.org/2000/svg" version="1.1" xmlns:xlink="http://www.w3.org/1999/xlink" viewBox="0 0 200 200"><rect width="200" height="200" fill="url('#gradient')"></rect><defs><linearGradient id="gradient" gradientTransform="rotate(107 0.5 0.5)"><stop offset="0%" stop-color="#000000"></stop><stop offset="100%" stop-color="#000000"></stop></linearGradient></defs><g><g fill="#ffffff" transform="matrix(5.107371882707591,0,0,5.107371882707591,7.200100900055972,136.3127896344443)" stroke="#feffff" stroke-width="0"><path d="M12.24-14.22L12.24-11.57L7.97-11.57L7.97 0L4.54 0L4.54-11.57L0.35-11.57L0.35-14.22L12.24-14.22ZM17.11-14.22L17.11-2.64L23.08-2.64L23.08 0L13.68 0L13.68-14.22L17.11-14.22ZM32.31 0L29.80-5.02L27.95-5.02L27.95 0L24.52 0L24.52-14.22L30.12-14.22Q32.65-14.22 34.07-13.10Q35.50-11.97 35.50-9.92L35.50-9.92Q35.50-8.44 34.90-7.46Q34.30-6.48 33.02-5.88L33.02-5.88L35.99-0.15L35.99 0L32.31 0ZM27.95-11.57L27.95-7.67L30.12-7.67Q31.09-7.67 31.59-8.18Q32.08-8.69 32.08-9.61Q32.08-10.53 31.58-11.05Q31.08-11.57 30.12-11.57L30.12-11.57L27.95-11.57Z"></path></g></g></svg>